<svg xmlns="http://www.w3.org/2000/svg" xmlns:xlink="http://www.w3.org/1999/xlink" width="50" height="50" viewBox="0 0 191.7714 191.686"><defs><clipPath id="clip-path" transform="translate(3.1143 3.0716)"><circle cx="92.7714" cy="92.7714" r="92.7714" fill="none"/></clipPath><linearGradient id="Unbenannter_Verlauf" x1="-3.0571" y1="191.857" x2="188.6" y2="0.1998" gradientTransform="matrix(1, 0, 0, -1, 3.1143, 191.7998)" gradientUnits="userSpaceOnUse"><stop offset="0" stop-color="#ce3647"/><stop offset="1" stop-color="#a30c1d"/></linearGradient><radialGradient id="Unbenannter_Verlauf_2" cx="-158.6632" cy="259.5594" r="204.6249" gradientTransform="matrix(1.2617, 0, 0, -1.2602, 204.9398, 332.0544)" gradientUnits="userSpaceOnUse"><stop offset="0" stop-color="#fff" stop-opacity="0.1"/><stop offset="1" stop-color="#fff" stop-opacity="0"/></radialGradient></defs><g id="Ebene_2" data-name="Ebene 2"><g id="Ebene_1-2" data-name="Ebene 1"><g clip-path="url(#clip-path)"><g id="Ebene_2-2" data-name="Ebene 2"><g id="bg"><rect width="191.7714" height="191.5429" fill="url(#Unbenannter_Verlauf)"/></g><g id="fg"><polygon points="123.806 74.114 157.746 132.9 191.686 191.686 123.806 191.686 55.926 191.686 89.866 132.9 123.806 74.114" fill="#dbdbdb"/><polygon points="90.866 133.9 124.595 75.48 123.806 74.114 89.866 132.9 55.926 191.686 57.503 191.686 90.866 133.9" fill="#fff" opacity="0.3" style="isolation:isolate"/><path d="M120.6916,42.2548a30,30,0,1,0,30,30A30,30,0,0,0,120.6916,42.2548Zm.51,49.6452a19.6452,19.6452,0,1,1,19.6451-19.6452h0A19.6451,19.6451,0,0,1,121.2016,91.9h0Z" transform="translate(3.1143 3.0716)" fill="#fee46e"/><circle cx="123.8058" cy="75.3264" r="9.0101" fill="#fee46e"/><g opacity="0.3"><path d="M122.1109,92.81a19.626,19.626,0,0,0,13.4147-33.97,19.624,19.624,0,0,1-27.739,27.739A19.57,19.57,0,0,0,122.1109,92.81Z" transform="translate(3.1143 3.0716)" fill="#fcfcfc"/><path d="M91.6014,73.1647a29.9914,29.9914,0,0,1,50.7475-21.6574A29.9918,29.9918,0,0,0,99.0205,92.9884q.4517.4719.9237.9237A29.89,29.89,0,0,1,91.6014,73.1647Z" transform="translate(3.1143 3.0716)" fill="#fcfcfc"/></g><path d="M112.5913,73.1647A9.0018,9.0018,0,0,1,127.4958,66.36,9.0032,9.0032,0,1,0,114.797,79.0592,8.9665,8.9665,0,0,1,112.5913,73.1647Z" transform="translate(3.1143 3.0716)" fill="#fcfcfc" opacity="0.3" style="isolation:isolate"/><g opacity="0.3"><path d="M106.8768,85.6694a19.624,19.624,0,0,1,27.7389-27.7389,19.6259,19.6259,0,0,0-28.6891,26.7888q.4587.4913.95.95Z" transform="translate(3.1143 3.0716)" fill="#7c6f37"/><path d="M141.439,50.5974A29.9914,29.9914,0,0,1,99.0342,93.0022a29.9919,29.9919,0,1,0,43.3327-41.4769Q141.9132,51.0513,141.439,50.5974Z" transform="translate(3.1143 3.0716)" fill="#7c6f37"/></g><path d="M126.5857,65.4505a9.0016,9.0016,0,0,1-12.6988,12.6988,9.0031,9.0031,0,1,0,12.6988-12.6988Z" transform="translate(3.1143 3.0716)" fill="#7c6f37" opacity="0.3" style="isolation:isolate"/><path d="M64.7657,41.0427a30,30,0,1,0,30,30,30,30,0,0,0-30-30Zm.51,49.6451A19.6452,19.6452,0,1,1,84.92,71.0425v0A19.645,19.645,0,0,1,65.2754,90.6878h0Z" transform="translate(3.1143 3.0716)" fill="#fee46e"/><circle cx="67.8799" cy="74.1143" r="9.0101" fill="#fee46e"/><g opacity="0.3"><path d="M66.1851,91.5977A19.6259,19.6259,0,0,0,79.6,57.6284a19.624,19.624,0,0,1-27.739,27.739A19.57,19.57,0,0,0,66.1851,91.5977Z" transform="translate(3.1143 3.0716)" fill="#fcfcfc"/><path d="M35.6758,71.9525A29.9913,29.9913,0,0,1,86.423,50.2952,29.9918,29.9918,0,0,0,43.0945,91.7763q.4518.4719.9237.9237A29.89,29.89,0,0,1,35.6758,71.9525Z" transform="translate(3.1143 3.0716)" fill="#fcfcfc"/></g><path d="M56.6657,71.9525A9.0017,9.0017,0,0,1,71.57,65.1484,9.0032,9.0032,0,1,0,58.8712,77.847,8.966,8.966,0,0,1,56.6657,71.9525Z" transform="translate(3.1143 3.0716)" fill="#fcfcfc" opacity="0.3" style="isolation:isolate"/><g opacity="0.3"><path d="M50.9509,84.4573A19.624,19.624,0,0,1,78.69,56.7184a19.6259,19.6259,0,0,0-28.6876,26.79q.4579.49.9487.9486Z" transform="translate(3.1143 3.0716)" fill="#7c6f37"/><path d="M85.513,49.3853A29.9913,29.9913,0,0,1,43.1083,91.79a29.9918,29.9918,0,1,0,43.3285-41.481Q85.9852,49.8372,85.513,49.3853Z" transform="translate(3.1143 3.0716)" fill="#7c6f37"/></g><path d="M70.66,64.2384A9.0016,9.0016,0,0,1,57.9613,76.9371,9.0031,9.0031,0,1,0,70.66,64.2384Z" transform="translate(3.1143 3.0716)" fill="#7c6f37" opacity="0.3" style="isolation:isolate"/><polygon points="67.88 74.114 101.82 132.9 135.76 191.686 67.88 191.686 0 191.686 33.94 132.9 67.88 74.114" fill="#f2f2f2"/><polygon points="34.94 133.9 68.669 75.48 67.88 74.114 33.94 132.9 0 191.686 1.577 191.686 34.94 133.9" fill="#fff"/></g><g id="finish"><rect width="191.7714" height="191.5429" fill="url(#Unbenannter_Verlauf_2)"/></g></g></g></g></g></svg>